# Blender 5.1.0
# www.blender.org
mtllib rat.mtl
o Cube
v -1.000000 -0.138356 -0.138356
v -1.000000 0.138356 -0.138356
v -1.000000 -0.138356 0.138356
v -1.000000 0.138356 0.138356
v 0.091309 0.719035 1.000000
v 0.149017 -0.550303 1.000000
v 0.380605 1.063324 0.550303
v 0.380605 1.063324 -0.550303
v 0.091309 0.719035 -1.000000
v 0.149017 -1.000000 0.550303
v 0.149017 -0.550303 -1.000000
v 0.149017 -1.000000 -0.550303
v -0.138356 -0.550303 -1.000000
v -0.138356 -1.000000 -0.550303
v -0.397989 -0.740367 -0.740367
v -0.138356 1.000000 -0.550303
v -0.138356 0.550303 -1.000000
v -0.397989 0.740367 -0.740367
v -0.138356 -1.000000 0.550303
v -0.138356 -0.550303 1.000000
v -0.397989 -0.740367 0.740367
v -0.138356 0.550303 1.000000
v -0.138356 1.000000 0.550303
v -0.397989 0.740367 0.740367
v 1.958919 -0.675755 -0.415996
v 1.634673 -1.000000 -0.550303
v 1.958919 -0.415996 -0.675755
v 1.634673 -0.550303 -1.000000
v 1.958919 0.415996 -0.675755
v 1.634673 0.550303 -1.000000
v 1.958919 0.675755 -0.415996
v 1.634673 1.000000 -0.550303
v 1.958919 -0.415996 0.675755
v 1.634673 -0.550303 1.000000
v 1.958919 -0.675755 0.415996
v 1.634673 -1.000000 0.550303
v 1.958919 0.675755 0.415996
v 1.634673 1.000000 0.550303
v 1.958919 0.415996 0.675755
v 1.634673 0.550303 1.000000
v 0.977188 1.179376 1.000000
v 1.266484 1.523665 0.550303
v 1.266484 1.523665 -0.550303
v 0.977188 1.179376 -1.000000
v 0.131785 0.641143 1.000000
v 0.421081 0.985432 0.550303
v 0.421081 0.985432 -0.550303
v 0.131785 0.641143 -1.000000
v 1.017665 1.101484 1.000000
v 1.306961 1.445773 0.550303
v 1.306961 1.445773 -0.550303
v 1.017665 1.101484 -1.000000
v 2.163741 0.151856 -0.093483
v 2.163741 0.093483 -0.151856
v 2.163741 -0.093483 -0.151856
v 2.163741 -0.151856 -0.093483
v 2.163741 -0.151856 0.093483
v 2.163741 -0.093483 0.151856
v 2.163741 0.093483 0.151856
v 2.163741 0.151856 0.093483
v 3.034014 0.151856 -0.093483
v 3.034014 0.093483 -0.151856
v 3.034014 -0.093483 -0.151856
v 3.034014 -0.151856 -0.093483
v 3.034014 -0.151856 0.093483
v 3.034014 -0.093483 0.151856
v 3.034014 0.093483 0.151856
v 3.034014 0.151856 0.093483
v 3.786488 0.151856 -0.093483
v 3.786488 0.093483 -0.151856
v 3.786488 -0.093483 -0.151856
v 3.786488 -0.151856 -0.093483
v 3.786488 -0.151856 0.093483
v 3.786488 -0.093483 0.151856
v 3.786488 0.093483 0.151856
v 3.786488 0.151856 0.093483
v 4.644822 0.031505 -0.019395
v 4.644822 0.019394 -0.031506
v 4.644822 -0.019395 -0.031506
v 4.644822 -0.031505 -0.019395
v 4.644822 -0.031505 0.019394
v 4.644822 -0.019395 0.031505
v 4.644822 0.019394 0.031505
v 4.644822 0.031505 0.019394
vn -1.0000 -0.0000 -0.0000
vn -0.1862 -0.6947 -0.6947
vn -0.1862 0.6947 -0.6947
vn -0.1862 -0.6947 0.6947
vn -0.1862 0.6947 0.6947
vn -0.0000 -0.0000 1.0000
vn -0.4610 0.6275 0.6275
vn -0.0000 -0.7071 -0.7071
vn -0.0000 -1.0000 -0.0000
vn -0.0000 -0.0000 -1.0000
vn -0.4610 0.6275 -0.6275
vn 0.0504 0.9987 -0.0000
vn -0.0000 -0.7071 0.7071
vn -0.7071 -0.7071 -0.0000
vn -0.7071 -0.0000 -0.7071
vn -0.7071 0.7071 -0.0000
vn -0.7071 -0.0000 0.7071
vn 0.7071 0.5000 -0.5000
vn 0.7071 -0.5000 -0.5000
vn 0.7071 -0.5000 0.5000
vn 0.7071 0.5000 0.5000
vn 0.7071 -0.0000 -0.7071
vn 0.7071 0.7071 -0.0000
vn 0.7071 -0.0000 0.7071
vn 0.7071 -0.7071 -0.0000
vn 0.9461 0.2290 0.2290
vn 0.0836 0.7646 -0.6391
vn -0.1211 0.9926 -0.0000
vn 0.0836 0.7646 0.6391
vn 0.4306 -0.8287 0.3574
vn 0.4306 -0.8287 -0.3574
vn 0.6518 0.3387 -0.6786
vn -0.6518 -0.3387 -0.6786
vn -0.6518 -0.3387 0.6786
vn 0.6518 0.3387 0.6786
vn 0.9461 -0.2290 0.2290
vn 0.9314 -0.0000 -0.3641
vn 0.9461 -0.2290 -0.2290
vn 0.9314 -0.3641 -0.0000
vn 0.9461 0.2290 -0.2290
vn 0.9314 -0.0000 0.3641
vn 0.9314 0.3641 -0.0000
vn -0.0000 0.7071 0.7071
vn -0.0000 0.7071 -0.7071
vn -0.0000 1.0000 -0.0000
vn 0.1389 -0.9903 -0.0000
vn 1.0000 -0.0000 -0.0000
vn 0.1389 0.9903 -0.0000
vn 0.1582 0.6982 0.6982
vn 0.1582 -0.6982 -0.6982
vn 0.1389 -0.0000 0.9903
vn 0.1389 -0.0000 -0.9903
vn 0.1582 -0.6982 0.6982
vn 0.1582 0.6982 -0.6982
vn -0.1001 0.8201 0.5635
vn -0.1001 0.8201 -0.5635
vn 0.0357 0.7067 -0.7067
vn 0.0357 0.7067 0.7067
vt 0.787648 0.184405
vt 0.741815 0.230238
vt 0.741815 0.184405
vt 0.944366 0.363081
vt 0.944366 0.257742
vt 0.988135 0.310411
vt 0.044471 0.891096
vt 0.044471 0.996435
vt 0.000702 0.943766
vt 0.045875 0.996435
vt 0.045875 0.891096
vt 0.089644 0.943766
vt 0.955529 0.245252
vt 0.955529 0.139913
vt 0.999298 0.192583
vt 0.210618 0.544253
vt 0.163018 0.726552
vt 0.172577 0.516305
vt 0.911257 0.236039
vt 0.954125 0.150462
vt 0.954125 0.255801
vt 0.529343 0.246780
vt 0.424004 0.000702
vt 0.529343 0.000702
vt 0.866770 0.000702
vt 0.819171 0.183001
vt 0.819171 0.000702
vt 0.183001 0.256338
vt 0.000702 0.010260
vt 0.210949 0.000702
vt 0.801058 0.939874
vt 0.758191 0.854297
vt 0.801058 0.834535
vt 0.715107 0.257742
vt 0.897407 0.465725
vt 0.715107 0.465725
vt 0.502636 0.503819
vt 0.397297 0.257742
vt 0.502636 0.257742
vt 0.713704 0.383145
vt 0.504039 0.456914
vt 0.541462 0.257742
vt 0.251016 0.505223
vt 0.423258 0.630626
vt 0.213593 0.704396
vt 0.530747 0.105953
vt 0.740411 0.032183
vt 0.702988 0.231356
vt 0.504039 0.595050
vt 0.713704 0.521281
vt 0.676281 0.720453
vt 0.504039 0.889655
vt 0.579992 0.972748
vt 0.504039 0.950502
vt 0.321351 0.898738
vt 0.397304 0.981831
vt 0.321351 0.959585
vt 0.171230 0.961018
vt 0.095278 0.877925
vt 0.171230 0.900171
vt 0.601155 0.889655
vt 0.677107 0.972748
vt 0.601155 0.950502
vt 0.817768 0.160755
vt 0.741815 0.000702
vt 0.817768 0.022948
vt 0.791060 0.833131
vt 0.715107 0.673078
vt 0.791060 0.650832
vt 0.868416 0.833131
vt 0.792464 0.673078
vt 0.868416 0.650832
vt 0.803107 0.467128
vt 0.879060 0.627182
vt 0.803107 0.649428
vt 0.244562 0.987024
vt 0.207301 0.882246
vt 0.220975 0.882246
vt 0.817863 0.939874
vt 0.865462 0.834535
vt 0.865462 0.939874
vt 0.213593 0.257742
vt 0.395893 0.503819
vt 0.213593 0.503819
vt 0.472212 0.715688
vt 0.432941 0.531415
vt 0.472212 0.505223
vt 0.008897 0.473465
vt 0.105744 0.257742
vt 0.105744 0.514901
vt 0.801703 0.467128
vt 0.715107 0.649428
vt 0.715107 0.467128
vt 0.990912 0.467128
vt 0.943313 0.572467
vt 0.943313 0.467128
vt 0.212353 0.246780
vt 0.394653 0.000702
vt 0.422601 0.256338
vt 0.107148 0.257742
vt 0.203994 0.473465
vt 0.107148 0.514901
vt 0.488155 0.837350
vt 0.473615 0.671989
vt 0.488155 0.671989
vt 0.440605 0.717092
vt 0.455144 0.882453
vt 0.440605 0.882453
vt 0.161615 0.681666
vt 0.081860 0.585119
vt 0.161615 0.516305
vt 0.000702 0.681667
vt 0.080457 0.585120
vt 0.080457 0.750481
vt 0.942962 0.261676
vt 0.928965 0.363081
vt 0.928965 0.257742
vt 0.917269 0.895382
vt 0.931266 0.793978
vt 0.931266 0.899317
vt 0.439201 0.882453
vt 0.424661 0.717092
vt 0.439201 0.717092
vt 0.927912 0.471063
vt 0.941909 0.572467
vt 0.927912 0.576402
vt 0.488155 0.505223
vt 0.473615 0.670585
vt 0.473615 0.505223
vt 0.816459 0.939874
vt 0.802462 0.838470
vt 0.816459 0.834535
vt 0.599751 0.721857
vt 0.568783 0.866005
vt 0.568783 0.721857
vt 0.485508 0.883857
vt 0.448248 0.988635
vt 0.424661 0.883857
vt 0.321351 0.737281
vt 0.414524 0.821669
vt 0.321351 0.875088
vt 0.245965 0.882833
vt 0.283226 0.987611
vt 0.269552 0.987611
vt 0.000702 0.751885
vt 0.093874 0.836273
vt 0.000702 0.889693
vt 0.932669 0.894821
vt 0.969930 0.790043
vt 0.993516 0.894821
vt 0.961346 0.138509
vt 0.868174 0.054122
vt 0.961346 0.000702
vt 0.962992 0.788639
vt 0.869820 0.704252
vt 0.962992 0.650832
vt 0.912484 0.257742
vt 0.898811 0.382378
vt 0.898811 0.257742
vt 0.632123 0.721857
vt 0.601155 0.866005
vt 0.601155 0.721857
vt 0.472212 0.717092
vt 0.458538 0.861240
vt 0.458538 0.717092
vt 0.711944 0.721857
vt 0.698270 0.866005
vt 0.698270 0.721857
vt 0.535007 0.721857
vt 0.504039 0.866005
vt 0.504039 0.721857
vt 0.536411 0.721857
vt 0.567379 0.866005
vt 0.536411 0.866005
vt 0.195390 0.872104
vt 0.209064 0.727956
vt 0.209064 0.872104
vt 0.259639 0.737281
vt 0.245965 0.881429
vt 0.245965 0.737281
vt 0.664495 0.721857
vt 0.645798 0.865419
vt 0.633527 0.721857
vt 0.926509 0.467128
vt 0.912835 0.591765
vt 0.912835 0.467128
vt 0.158618 0.751885
vt 0.127650 0.876521
vt 0.127650 0.751885
vt 0.880463 0.591765
vt 0.911431 0.467129
vt 0.911431 0.591765
vt 0.915865 0.790043
vt 0.902192 0.914680
vt 0.902192 0.790043
vt 0.927561 0.257742
vt 0.913888 0.382378
vt 0.913888 0.257742
vt 0.869820 0.914680
vt 0.900788 0.790043
vt 0.900788 0.914680
vt 0.095278 0.876521
vt 0.126246 0.751885
vt 0.126246 0.876522
vt 0.497989 0.515660
vt 0.489558 0.513654
vt 0.491564 0.505223
vt 0.163018 0.871517
vt 0.181715 0.727956
vt 0.193987 0.871517
vt 0.306274 0.881264
vt 0.314529 0.737281
vt 0.319948 0.881264
vt 0.274716 0.737281
vt 0.266461 0.881264
vt 0.261042 0.737281
vt 0.665899 0.865419
vt 0.684595 0.721857
vt 0.696867 0.865419
vt 0.244562 0.737281
vt 0.225865 0.880842
vt 0.213593 0.737281
vt 0.291197 0.881264
vt 0.299452 0.737281
vt 0.304870 0.881264
vt 0.289793 0.881264
vt 0.281538 0.737281
vt 0.284375 0.737281
vt 0.787648 0.230238
vt 0.210618 0.726552
vt 0.868174 0.139913
vt 0.424004 0.246780
vt 0.866770 0.183001
vt 0.000702 0.256338
vt 0.715107 0.950423
vt 0.897407 0.257742
vt 0.397297 0.503819
vt 0.704295 0.315312
vt 0.564857 0.488396
vt 0.504039 0.284204
vt 0.213593 0.531685
vt 0.413849 0.562793
vt 0.274411 0.735877
vt 0.540155 0.173786
vt 0.679594 0.000702
vt 0.740411 0.204894
vt 0.513448 0.662883
vt 0.652886 0.489799
vt 0.713704 0.693991
vt 0.579992 0.867409
vt 0.397304 0.876492
vt 0.095278 0.983264
vt 0.677107 0.867409
vt 0.741815 0.183001
vt 0.715107 0.810885
vt 0.792464 0.810885
vt 0.879060 0.489374
vt 0.183715 0.987024
vt 0.817863 0.834535
vt 0.395893 0.257742
vt 0.424661 0.713526
vt 0.000702 0.265643
vt 0.801703 0.649428
vt 0.990912 0.572467
vt 0.212353 0.000702
vt 0.212190 0.265643
vt 0.473615 0.837350
vt 0.455144 0.717092
vt 0.081860 0.750481
vt 0.000702 0.516305
vt 0.942962 0.367015
vt 0.917269 0.790043
vt 0.424661 0.882453
vt 0.941909 0.467128
vt 0.488155 0.670585
vt 0.802462 0.943809
vt 0.599751 0.866005
vt 0.461922 0.988635
vt 0.414524 0.790700
vt 0.306812 0.882833
vt 0.093874 0.805305
vt 0.956256 0.790043
vt 0.868174 0.085090
vt 0.869820 0.735220
vt 0.912484 0.382378
vt 0.632123 0.866005
vt 0.472212 0.861240
vt 0.711944 0.866005
vt 0.535007 0.866005
vt 0.567379 0.721857
vt 0.195390 0.727956
vt 0.259639 0.881429
vt 0.652223 0.865419
vt 0.926509 0.591765
vt 0.158618 0.876521
vt 0.880463 0.467129
vt 0.915865 0.914680
vt 0.927561 0.382378
vt 0.869820 0.790043
vt 0.095278 0.751885
vt 0.497989 0.505223
vt 0.499995 0.507229
vt 0.499995 0.513654
vt 0.491564 0.515660
vt 0.489558 0.507229
vt 0.175290 0.727956
vt 0.311692 0.737281
vt 0.269298 0.881264
vt 0.678170 0.721857
vt 0.232290 0.880842
vt 0.296615 0.737281
vt 0.276120 0.881264
s 0
usemtl Material
f 1/1/1 4/2/1 2/3/1
f 13/4/2 14/5/2 15/6/2
f 16/7/3 17/8/3 18/9/3
f 19/10/4 20/11/4 21/12/4
f 22/13/5 23/14/5 24/15/5
f 22/16/6 6/17/6 5/18/6
f 5/19/7 23/20/7 22/21/7
f 12/22/8 28/23/8 26/24/8
f 12/25/9 19/26/9 14/27/9
f 30/28/10 11/29/10 9/30/10
f 16/31/11 9/32/11 17/33/11
f 8/34/12 38/35/12 32/36/12
f 6/37/13 36/38/13 34/39/13
f 14/40/14 21/41/14 1/42/14
f 2/43/15 17/44/15 15/45/15
f 23/46/16 18/47/16 4/48/16
f 20/49/17 24/50/17 3/51/17
f 29/52/18 32/53/18 31/54/18
f 25/55/19 28/56/19 27/57/19
f 33/58/20 36/59/20 35/60/20
f 37/61/21 40/62/21 39/63/21
f 27/64/22 30/65/22 29/66/22
f 38/67/23 31/68/23 32/69/23
f 34/70/24 39/71/24 40/72/24
f 26/73/25 35/74/25 36/75/25
f 37/76/26 59/77/26 60/78/26
f 14/79/8 11/80/8 12/81/8
f 26/82/9 10/83/9 12/84/9
f 11/85/10 17/86/10 9/87/10
f 8/88/27 30/89/27 9/90/27
f 16/91/28 7/92/28 8/93/28
f 20/94/13 10/95/13 6/96/13
f 6/97/6 40/98/6 5/99/6
f 40/100/29 7/101/29 5/102/29
f 44/103/10 48/104/10 9/105/10
f 42/106/10 46/107/10 7/108/10
f 47/109/30 52/110/30 51/111/30
f 46/112/31 49/113/31 45/114/31
f 44/115/32 51/116/32 52/117/32
f 5/118/33 46/119/33 45/120/33
f 5/121/6 49/122/6 41/123/6
f 9/124/34 47/125/34 8/126/34
f 43/127/6 47/128/6 51/129/6
f 41/130/35 50/131/35 42/132/35
f 58/133/6 67/134/6 59/135/6
f 35/136/36 58/137/36 33/138/36
f 29/139/37 55/140/37 27/141/37
f 25/142/38 55/143/38 56/144/38
f 25/145/39 57/146/39 35/147/39
f 31/148/40 54/149/40 29/150/40
f 33/151/41 59/152/41 39/153/41
f 37/154/42 53/155/42 31/156/42
f 67/157/43 76/158/43 68/159/43
f 54/160/10 63/161/10 55/162/10
f 57/163/13 66/164/13 58/165/13
f 53/166/44 62/167/44 54/168/44
f 56/169/9 65/170/9 57/171/9
f 53/172/45 68/173/45 61/174/45
f 59/175/43 68/176/43 60/177/43
f 55/178/8 64/179/8 56/180/8
f 72/181/46 81/182/46 73/183/46
f 63/184/8 72/185/8 64/186/8
f 66/187/6 75/188/6 67/189/6
f 62/190/10 71/191/10 63/192/10
f 65/193/13 74/194/13 66/195/13
f 61/196/44 70/197/44 62/198/44
f 64/199/9 73/200/9 65/201/9
f 68/202/45 69/203/45 61/204/45
f 81/205/47 79/206/47 77/207/47
f 76/208/48 77/209/48 69/210/48
f 75/211/49 84/212/49 76/213/49
f 71/214/50 80/215/50 72/216/50
f 74/217/51 83/218/51 75/219/51
f 70/220/52 79/221/52 71/222/52
f 73/223/53 82/224/53 74/225/53
f 70/226/54 77/227/54 78/228/54
f 1/1/1 3/229/1 4/2/1
f 22/16/6 20/230/6 6/17/6
f 5/19/55 7/231/55 23/20/55
f 12/22/8 11/232/8 28/23/8
f 12/25/9 10/233/9 19/26/9
f 30/28/10 28/234/10 11/29/10
f 16/31/56 8/235/56 9/32/56
f 8/34/12 7/236/12 38/35/12
f 6/37/13 10/237/13 36/38/13
f 1/42/14 15/238/14 14/40/14
f 14/40/14 19/239/14 21/41/14
f 21/41/14 3/240/14 1/42/14
f 15/45/15 1/241/15 2/43/15
f 2/43/15 18/242/15 17/44/15
f 17/44/15 13/243/15 15/45/15
f 4/48/16 24/244/16 23/46/16
f 23/46/16 16/245/16 18/47/16
f 18/47/16 2/246/16 4/48/16
f 3/51/17 21/247/17 20/49/17
f 20/49/17 22/248/17 24/50/17
f 24/50/17 4/249/17 3/51/17
f 29/52/18 30/250/18 32/53/18
f 25/55/19 26/251/19 28/56/19
f 33/58/20 34/252/20 36/59/20
f 37/61/21 38/253/21 40/62/21
f 27/64/22 28/254/22 30/65/22
f 38/67/23 37/255/23 31/68/23
f 34/70/24 33/256/24 39/71/24
f 26/73/25 25/257/25 35/74/25
f 37/76/26 39/258/26 59/77/26
f 14/79/8 13/259/8 11/80/8
f 26/82/9 36/260/9 10/83/9
f 11/85/10 13/261/10 17/86/10
f 8/88/57 32/262/57 30/89/57
f 16/91/28 23/263/28 7/92/28
f 20/94/13 19/264/13 10/95/13
f 6/97/6 34/265/6 40/98/6
f 40/100/58 38/266/58 7/101/58
f 44/103/10 52/267/10 48/104/10
f 42/106/10 50/268/10 46/107/10
f 47/109/30 48/269/30 52/110/30
f 46/112/31 50/270/31 49/113/31
f 44/115/32 43/271/32 51/116/32
f 5/118/33 7/272/33 46/119/33
f 5/121/6 45/273/6 49/122/6
f 9/124/34 48/274/34 47/125/34
f 43/127/6 8/275/6 47/128/6
f 41/130/35 49/276/35 50/131/35
f 58/133/6 66/277/6 67/134/6
f 35/136/36 57/278/36 58/137/36
f 29/139/37 54/279/37 55/140/37
f 25/142/38 27/280/38 55/143/38
f 25/145/39 56/281/39 57/146/39
f 31/148/40 53/282/40 54/149/40
f 33/151/41 58/283/41 59/152/41
f 37/154/42 60/284/42 53/155/42
f 67/157/43 75/285/43 76/158/43
f 54/160/10 62/286/10 63/161/10
f 57/163/13 65/287/13 66/164/13
f 53/166/44 61/288/44 62/167/44
f 56/169/9 64/289/9 65/170/9
f 53/172/45 60/290/45 68/173/45
f 59/175/43 67/291/43 68/176/43
f 55/178/8 63/292/8 64/179/8
f 72/181/46 80/293/46 81/182/46
f 63/184/8 71/294/8 72/185/8
f 66/187/6 74/295/6 75/188/6
f 62/190/10 70/296/10 71/191/10
f 65/193/13 73/297/13 74/194/13
f 61/196/44 69/298/44 70/197/44
f 64/199/9 72/299/9 73/200/9
f 68/202/45 76/300/45 69/203/45
f 77/207/47 84/301/47 83/302/47
f 83/302/47 82/303/47 81/205/47
f 81/205/47 80/304/47 79/206/47
f 79/206/47 78/305/47 77/207/47
f 77/207/47 83/302/47 81/205/47
f 76/208/48 84/306/48 77/209/48
f 75/211/49 83/307/49 84/212/49
f 71/214/50 79/308/50 80/215/50
f 74/217/51 82/309/51 83/218/51
f 70/220/52 78/310/52 79/221/52
f 73/223/53 81/311/53 82/224/53
f 70/226/54 69/312/54 77/227/54
