# Blender 5.1.0
# www.blender.org
mtllib rock.mtl
o Icosphere
v 0.723600 -0.447215 0.525720
v -0.276385 -0.447215 0.850640
v -0.837365 -0.186468 -0.004277
v -0.250118 -0.271547 -0.775110
v 0.723600 -0.447215 -0.525720
v 0.267872 0.457310 0.776460
v -0.680825 0.386861 0.166489
v -0.577512 0.294237 -0.318343
v 0.256931 0.364151 -0.715289
v 0.675630 0.509897 -0.030136
v -0.025428 0.787204 0.049566
vn -0.1495 -0.9828 -0.1086
vn 0.9987 0.0501 -0.0000
vn 0.3072 -0.1073 0.9456
vn -0.8263 0.0588 0.5601
vn -0.7934 0.0317 -0.6079
vn 0.2312 -0.0933 -0.9684
vn 0.8430 0.3011 0.4458
vn -0.5207 0.3762 0.7664
vn -0.9104 0.3249 -0.2561
vn -0.4195 0.4108 -0.8095
vn 0.7766 0.3199 -0.5427
vn 0.3806 0.8902 0.2504
vn -0.3824 0.7736 0.5054
vn -0.5366 0.8004 -0.2673
vn -0.3248 0.7717 -0.5468
vn 0.3044 0.8767 -0.3725
vn -0.0000 -1.0000 -0.0000
vn -0.2795 -0.9541 -0.1076
vt 1.000000 0.157461
vt 0.636364 0.157461
vt 0.454546 0.157461
vt 0.272728 0.157461
vt 0.363637 0.314921
vt 0.090910 0.157461
vt 0.181819 0.314921
vt 0.818182 0.157461
vt 0.909091 0.314921
vt 0.727273 0.314921
vt 0.545455 0.314921
vt 0.000000 0.314921
vt 0.272728 0.472382
vt 0.090910 0.472382
vt 0.818182 0.472382
vt 0.636364 0.472382
vt 0.454546 0.472382
s 0
usemtl Material.001
f 2/1/1 4/2/1 5/3/1
f 1/4/2 5/3/2 10/5/2
f 2/6/3 1/4/3 6/7/3
f 3/8/4 2/1/4 7/9/4
f 4/2/5 3/8/5 8/10/5
f 5/3/6 4/2/6 9/11/6
f 1/4/7 10/5/7 6/7/7
f 2/6/8 6/7/8 7/12/8
f 3/8/9 7/9/9 8/10/9
f 4/2/10 8/10/10 9/11/10
f 5/3/11 9/11/11 10/5/11
f 6/7/12 10/5/12 11/13/12
f 7/12/13 6/7/13 11/14/13
f 8/10/14 7/9/14 11/15/14
f 9/11/15 8/10/15 11/16/15
f 10/5/16 9/11/16 11/17/16
f 5/3/17 1/4/17 2/1/17
f 2/1/18 3/8/18 4/2/18
