# Blender 5.1.0
# www.blender.org
mtllib table.mtl
o Cube
v 1.000000 1.000000 -1.000000
v 1.000000 -1.000000 -1.000000
v 1.000000 1.000000 1.000000
v 1.000000 -1.000000 1.000000
v -1.000000 1.000000 -1.000000
v -1.000000 -1.000000 -1.000000
v -1.000000 1.000000 1.000000
v -1.000000 -1.000000 1.000000
v -1.000000 -1.000000 -0.600129
v 1.000000 1.000000 -0.600129
v -1.000000 1.000000 -0.600129
v 1.000000 -1.000000 -0.600129
v -1.000000 -1.000000 0.571385
v 1.000000 1.000000 0.571385
v -1.000000 1.000000 0.571385
v 1.000000 -1.000000 0.571385
v -0.588328 -1.000000 -1.000000
v -0.588328 1.000000 1.000000
v -0.588328 -1.000000 1.000000
v -0.588328 1.000000 -1.000000
v -0.588328 -1.000000 -0.600129
v -0.588328 1.000000 -0.600129
v -0.588328 -1.000000 0.571385
v -0.588328 1.000000 0.571385
v 0.636789 -1.000000 1.000000
v 0.636789 1.000000 -1.000000
v 0.636789 1.000000 -0.600129
v 0.636789 1.000000 0.571385
v 0.636789 -1.000000 -1.000000
v 0.636789 1.000000 1.000000
v 0.636789 -1.000000 -0.600129
v 0.636789 -1.000000 0.571385
v 1.000000 0.538988 -1.000000
v -1.000000 0.538988 1.000000
v 1.000000 0.538988 1.000000
v -1.000000 0.538988 -1.000000
v 1.000000 0.538988 -0.600129
v -1.000000 0.538988 -0.600129
v -1.000000 0.538988 0.571385
v 1.000000 0.538988 0.571385
v -0.588328 0.538988 -1.000000
v -0.588328 0.538988 1.000000
v 0.636789 0.538988 1.000000
v 0.636789 0.538988 -1.000000
v -0.600000 0.538988 -0.600129
v -0.600000 0.538988 0.571385
v 0.600000 0.538988 -0.600129
v 0.600000 0.538988 0.571385
vn -0.0000 1.0000 -0.0000
vn -0.0000 -0.0000 1.0000
vn -1.0000 -0.0000 -0.0000
vn -0.0000 -1.0000 -0.0000
vn 1.0000 -0.0000 -0.0000
vn -0.0000 -0.0000 -1.0000
vn 0.9995 0.0076 0.0292
vn 0.9996 0.0076 -0.0272
vn -0.9961 -0.0238 0.0855
vn -0.9955 -0.0238 -0.0916
vt 0.875000 0.696423
vt 0.823541 0.750000
vt 0.823541 0.696423
vt 0.625000 0.948541
vt 0.567374 1.000000
vt 0.567374 0.948541
vt 0.625000 0.200016
vt 0.567374 0.250000
vt 0.567374 0.200016
vt 0.375000 0.696423
vt 0.329599 0.750000
vt 0.329599 0.696423
vt 0.625000 0.696423
vt 0.567374 0.750000
vt 0.567374 0.696423
vt 0.625000 0.454599
vt 0.567374 0.500000
vt 0.567374 0.454599
vt 0.625000 0.500000
vt 0.567374 0.549984
vt 0.375000 0.500000
vt 0.329599 0.549984
vt 0.329599 0.500000
vt 0.625000 0.053577
vt 0.567374 0.053577
vt 0.875000 0.500000
vt 0.823541 0.549984
vt 0.823541 0.500000
vt 0.625000 0.000000
vt 0.567374 0.000000
vt 0.625000 0.549984
vt 0.875000 0.549984
vt 0.670401 0.696423
vt 0.670401 0.549984
vt 0.670401 0.500000
vt 0.176459 0.500000
vt 0.125000 0.549984
vt 0.125000 0.500000
vt 0.625000 0.250000
vt 0.567374 0.301459
vt 0.176459 0.696423
vt 0.125000 0.750000
vt 0.125000 0.696423
vt 0.625000 0.795401
vt 0.567374 0.795401
vt 0.670401 0.750000
vt 0.625000 0.750000
vt 0.625000 0.301459
vt 0.375000 0.795401
vt 0.375000 0.750000
vt 0.375000 0.301459
vt 0.375000 0.250000
vt 0.375000 0.053577
vt 0.375000 0.000000
vt 0.375000 0.549984
vt 0.375000 0.454599
vt 0.375000 0.200016
vt 0.375000 1.000000
vt 0.375000 0.948541
vt 0.567374 0.182146
vt 0.567374 0.270010
vt 0.567374 0.567854
vt 0.567374 0.479990
vt 0.176459 0.549984
vt 0.875000 0.750000
vt 0.625000 1.000000
vt 0.176459 0.750000
s 0
usemtl Material
f 15/1/1 18/2/1 24/3/1
f 18/4/2 34/5/2 42/6/2
f 11/7/3 36/8/3 38/9/3
f 16/10/4 25/11/4 32/12/4
f 14/13/5 35/14/5 40/15/5
f 26/16/6 33/17/6 44/18/6
f 1/19/5 37/20/5 33/17/5
f 2/21/4 31/22/4 29/23/4
f 15/24/3 38/9/3 39/25/3
f 5/26/1 22/27/1 20/28/1
f 7/29/3 39/25/3 34/30/3
f 10/31/5 40/15/5 37/20/5
f 11/32/1 24/3/1 22/27/1
f 22/27/1 28/33/1 27/34/1
f 20/28/1 27/34/1 26/35/1
f 17/36/4 9/37/4 6/38/4
f 5/39/6 41/40/6 36/8/6
f 23/41/4 8/42/4 13/43/4
f 30/44/2 42/6/2 43/45/2
f 24/3/1 30/46/1 28/33/1
f 28/33/1 3/47/1 14/13/1
f 3/47/2 43/45/2 35/14/2
f 26/35/1 10/31/1 1/19/1
f 27/34/1 14/13/1 10/31/1
f 20/48/6 44/18/6 41/40/6
f 35/14/2 25/49/2 4/50/2
f 36/8/6 17/51/6 6/52/6
f 34/30/3 13/53/3 8/54/3
f 33/17/5 12/55/5 2/21/5
f 44/18/6 2/21/6 29/56/6
f 40/15/5 4/50/5 16/10/5
f 38/9/3 6/52/3 9/57/3
f 42/6/2 8/58/2 19/59/2
f 46/60/4 38/9/4 45/61/4
f 48/62/4 45/61/4 47/63/4
f 40/15/4 47/63/4 37/20/4
f 46/60/6 13/43/6 39/25/6
f 42/6/4 48/62/4 43/45/4
f 41/40/4 47/63/4 45/61/4
f 23/41/5 42/6/5 19/59/5
f 40/15/6 32/12/6 48/62/6
f 43/45/3 32/12/3 25/11/3
f 31/22/3 44/18/3 29/56/3
f 37/20/2 31/22/2 12/55/2
f 9/57/2 45/61/2 38/9/2
f 21/64/7 41/40/7 45/61/7
f 15/1/1 7/65/1 18/2/1
f 18/4/2 7/66/2 34/5/2
f 11/7/3 5/39/3 36/8/3
f 16/10/4 4/50/4 25/11/4
f 14/13/5 3/47/5 35/14/5
f 26/16/6 1/19/6 33/17/6
f 1/19/5 10/31/5 37/20/5
f 2/21/4 12/55/4 31/22/4
f 15/24/3 11/7/3 38/9/3
f 5/26/1 11/32/1 22/27/1
f 7/29/3 15/24/3 39/25/3
f 10/31/5 14/13/5 40/15/5
f 11/32/1 15/1/1 24/3/1
f 22/27/1 24/3/1 28/33/1
f 20/28/1 22/27/1 27/34/1
f 17/36/4 21/64/4 9/37/4
f 5/39/6 20/48/6 41/40/6
f 23/41/4 19/67/4 8/42/4
f 30/44/2 18/4/2 42/6/2
f 24/3/1 18/2/1 30/46/1
f 28/33/1 30/46/1 3/47/1
f 3/47/2 30/44/2 43/45/2
f 26/35/1 27/34/1 10/31/1
f 27/34/1 28/33/1 14/13/1
f 20/48/6 26/16/6 44/18/6
f 35/14/2 43/45/2 25/49/2
f 36/8/6 41/40/6 17/51/6
f 34/30/3 39/25/3 13/53/3
f 33/17/5 37/20/5 12/55/5
f 44/18/6 33/17/6 2/21/6
f 40/15/5 35/14/5 4/50/5
f 38/9/3 36/8/3 6/52/3
f 42/6/2 34/5/2 8/58/2
f 46/60/4 39/25/4 38/9/4
f 48/62/4 46/60/4 45/61/4
f 40/15/4 48/62/4 47/63/4
f 46/60/6 23/41/6 13/43/6
f 42/6/4 46/60/4 48/62/4
f 41/40/4 44/18/4 47/63/4
f 23/41/8 46/60/8 42/6/8
f 40/15/6 16/10/6 32/12/6
f 43/45/9 48/62/9 32/12/9
f 31/22/10 47/63/10 44/18/10
f 37/20/2 47/63/2 31/22/2
f 9/57/2 21/64/2 45/61/2
f 21/64/5 17/51/5 41/40/5
